<mxfile host="Electron" agent="Mozilla/5.0 (X11; Linux x86_64) AppleWebKit/537.36 (KHTML, like Gecko) draw.io/28.0.6 Chrome/138.0.7204.100 Electron/37.2.3 Safari/537.36" version="28.0.6">
  <diagram name="Page-1" id="tyjuTPaBHODxWZQEWw9u">
    <mxGraphModel dx="729" dy="1665" grid="1" gridSize="10" guides="1" tooltips="1" connect="1" arrows="1" fold="1" page="1" pageScale="1" pageWidth="850" pageHeight="1100" math="0" shadow="0">
      <root>
        <mxCell id="0" />
        <mxCell id="1" parent="0" />
        <mxCell id="ZuHCqj4z-NWjuIJHpHam-20" value="" style="group" parent="1" vertex="1" connectable="0">
          <mxGeometry x="40" y="-190" width="800" height="800" as="geometry" />
        </mxCell>
        <mxCell id="ZuHCqj4z-NWjuIJHpHam-18" value="" style="whiteSpace=wrap;html=1;aspect=fixed;" parent="ZuHCqj4z-NWjuIJHpHam-20" vertex="1">
          <mxGeometry width="800" height="800" as="geometry" />
        </mxCell>
        <mxCell id="ZuHCqj4z-NWjuIJHpHam-19" value="BadReads_net" style="text;html=1;align=center;verticalAlign=middle;whiteSpace=wrap;rounded=0;fontSize=22;" parent="ZuHCqj4z-NWjuIJHpHam-20" vertex="1">
          <mxGeometry x="80" y="40" width="60" height="30" as="geometry" />
        </mxCell>
        <mxCell id="ZuHCqj4z-NWjuIJHpHam-12" value="" style="group" parent="ZuHCqj4z-NWjuIJHpHam-20" vertex="1" connectable="0">
          <mxGeometry x="307" y="70" width="156" height="160" as="geometry" />
        </mxCell>
        <mxCell id="ZuHCqj4z-NWjuIJHpHam-3" value="" style="points=[];aspect=fixed;html=1;align=center;shadow=0;dashed=0;fillColor=#008a00;strokeColor=#005700;shape=mxgraph.alibaba_cloud.nodejs_performance_platform;fontColor=#ffffff;" parent="ZuHCqj4z-NWjuIJHpHam-12" vertex="1">
          <mxGeometry x="40" y="74.19" width="32" height="36.11" as="geometry" />
        </mxCell>
        <mxCell id="ZuHCqj4z-NWjuIJHpHam-6" value="" style="shape=image;verticalLabelPosition=bottom;labelBackgroundColor=default;verticalAlign=top;aspect=fixed;imageAspect=0;image=data:image/png,iVBORw0KGgoAAAANSUhEUgAAAIAAAAByCAYAAACbZNnZAAAABGdBTUEAALGPC/xhBQAAACBjSFJNAAB6JgAAgIQAAPoAAACA6AAAdTAAAOpgAAA6mAAAF3CculE8AAAABmJLR0QA/wD/AP+gvaeTAAAAB3RJTUUH6AcSAhA1YQZyVwAAIANJREFUeNrlXXt8HFX1/37v3Nk0JW0BQaAF2trspqXQggJSFRQEBP2BglQohXaTlvIGUVAEigVFQAF/CBStbRIoL6kvUFEReclLrEALpdls+qK0PwGltU2bZOfOnN8fu8WQ3NlMkt2hqefzyR/Zmbmvc+455557HsR2AHVNuYPhcIoIJgFIAtit0+N2AGtA/gXAU37gPHF3DddhO4RpGRmhlH8UAnxaKTlcBCMBVHR65R0ALSCeCyj331Wd+PsHPWZ+kJ2nl3ccQEfdAuDoXnwWCPAYyZ+25pyHF41n7oOcw+RlkhiS8L8kIjMBfBaA6sXnj4kffK1xXMWr/3UEUJvNXQLhDQAS/WjmbQI3ba7Uty/ah21xjn/Wehmc22IupODrAHbvR1MdgHyjIZX40X8NAdRmve9B8K0SNrmOkGv1Jrdh3sH0yor4xeKaod4MAWcDGF7Cpq9rSLlX7fAEkM6Y00i5v0zNvwbIzIZU4q9l0VWy3iQRzAewXxmaF5Kn1Sf1gzssARRk/vMAdgp55d8CPKaIjAg2ANhZwBEEDgdkTMRufAFu89v0VQsnckspxn3eMqlqc811AC6ILuPZIsAzhKwDsBHEriJIETgGwNCQj1oDBofdlaxYtkMSQG3W+zMER9mQBuL79PX19WO52fpti+zDwJwGYqYIUhGmthIITu8vN8jverkP4KgIr2cAzHeoH5if5Jv2E48MCWiuIPGNEGL6U0PKPXaHI4DpTd4nlcIzNtYHcGpDSkcTCyKc3myOchSuEcEne3g7B8hlfVKwRFjX4l0swu8DcHt4+xkqXF0/Rj8JUiJxw6w5kyJ322WBTGpMJl7YoQigLuP9XojjLI9uaki5l/WJozSb/wHkegD79/Dqz3PUM+5NclMkRW+FDMv5ZgGBLxelEWCpA16xIKV/16fxZ7xbQFxiefTbhpR7Qhx4UXF0MisjuwlxjOXRPys9fU1f221I6d+OXKcPEshXARST96ckxP97ekV7sqc2Zza1jfZ883wPyG+n4Jotnj6kr8gHANOuZxeMQ13h+GnL5UM7DAEY5X8OgGPZQrfMHc/W/rQ950iaxlTiVgb+xwCriNnWWTV95y8zMrlDwzlK7uO+0i8AGFdk1z8tjj+hvsad018j1MKJ3ELgNssjRyn/mB2GAESCz1vlD/2flaqP+rGDMg1JfYQQlwMIQl7bIyCfqs2YU7uLKHMSwMcBfDj0mAbcuCWpj2ocMyhbutXx77WujQqO32EIAMAnLL+9Xp8atLK0Gg2lMeneCOLzAP4Z8tYgUO6ra87Neg/5zblzhPJzAINDvnmHxHH1KffyRaRfyiHXpwatJNHcndzUJ3cIAkivkkEA9+3OSvl0ufpsSLp/hNIfBfBy2LwF/HFtc+6iumzuqwLOLbIWLznUH61Puo+WURd/ysJwRk1eJomBzwHac0lbP4pBppzdNlRzrWnThwP4TfgJiLeK8IdFTkN/zFEfGXamL52IlGabHjDMzY0Z8ASglFNt+z0IVHO5+144kVtak/okCuf2QZzc3prUX4h6dOyf5KJ1LQzta1dK0OW3NATDbBtMIYjlTr8gs89PZ7x1JK6LtCOJyxuT+sa4bCQ+g3VKrExo5wHPAQLaFatAB1sRIzTWuN8TyvlAUUudkHJJY9K9Mc6xKZE2++9B5cAXAQGtkwhMRawEkB+L+j9AihIAoNbHPS4x9s0QAAOfAIL3u0T9Z9IOvDgXuS7rHSuUB3qYsxKRhXXN3tFxji0hgzpClINBO4ASKFbqdrz2wXEtcG22Yz8R/AzRvI8SAvwivbzjgNh0gETHTnb1SbYMeAIAsDmk6yFxLO6sjOwGcR7upUI1lA4fnrlS9ohjjIGoEP8AtXkHEAFqk13bCpt06SC9SgZ5NA+HOZMQvA3EzSHHl1G+Mb+ZtV7KzqkEHBpyGhn4BECIlQCUw93Ku6pCGq8RwKSQ5/fUJ52LG6r1ZUCoi9ohptVbAJHyXpsLdw15MPAJQDHkvC/ByLIqfS3mmxCeGvL4mSrlzgQpIKXVc9MAngzZnafVZc2lZSbWUXYjTfDmgCeA3JbEqhCqH1U+5HtHiuA7IQhdBeqTb0vyPc170XjmfF+fArAl5Gx4fbrZK9v1LAnbZhBVlVgz4Amg4JjZzemBCqPLovG3yD4S4GewWzk3Cf0TGpLsNp67x/FfIv4JBDbYDi0E7pmZlb3LtEy2zfD2vOHcOuAJoLCDVnXnekiWup8Ls1KBwCyCPVDDJ/DlYh63jTUVTQFwKgDble+HfTEPlumGzmbzXx0HbmIhANpvu2omr5WSWrpa4d8E4OMhbPaq+pT7WE9tNKbcP4ng6pDHk6pc8/2SHlPzp4yaiGs2QAkAfMWm4wzd6pXM2FKXMcdD5PyQxw/XV0e/3GlM6esB/DLk8UV5Z9TSgNliJsLmLqfwUhy40XF0IoKXbTfuAXEQgBf72/6ZLfJhCUwDrPf6bHHpfK0u2zEaze35fn3uJC4T718I6ZCgYLXMdkAFFZf6yoy37E4CUp9eJRMaR/Mf/beTyEG0DFvAl3cYAlC+fiVQxvbko32R81v8jlGB4+ylwBEBZA8G/oUA9rApH6BUe2JaOm8yOgCDroh4PxJ8ZQqfW8lqdxj/uXTWu12BbwnkTfr+Pzb7Fat66yhKqIPyA+2yZ7ReEg93jglqM7nVILsed5Y3pFxrnF16edsopd0JEKkRcAwh1SJSDXIfxOfL2FvwAVlLcIWALYC0CJmB8V5tHFdpVepqm72m7lyGKxtSeswOwwEKpPYs0O28O3bWatnLN7kPBT4Pg1ITRWQCgYkAhsl7N7eS3yMktnNwAI4SYBQgny0oc4CjUdvsbRRgKcmlRPCKD3mhMkhs7ICxKIDBs3ENWMeHfzwlwOldf/ZyfhZQO4F5ZWG7R3HfYWcCR0DkCAGhQHTAWG/7AmW3Sg7YU0B6lewpAXcOURF3wn8r0B4lrURGzXhdRsa0McuE9EzHWAV1mhCnABgf35pyPUSWCmQTqDYCshHAJiEMRdqYzzlUOIWoDfkFD3b5jzKISpCDKNAAhgLcGRLsTHBoAEwksVeMJPIaBb+A+PfXjx2U2e4JYGZW9g7ETBFgCoCDSth0AJG1JFtArhQJjgkJ1862VuqJ5UoXM2u9DPZa/SWAWCx3XEnizwIZg0DGlEFZfZnA/Yr6/lK6qfefAArh2oo4D8CJJdAr1lOwFMQSAZcE9JcORaJl2+VNXSZ3vpC324hEBJ9prHH/UtbTTNb7NARPWNeOcl5DMnHntuPqVuaSQeAcQMhECCYGxESi3xzEAHgYAe5oqNFPRA1HLzkBTF4miSGuVyfgxQDG9o8M+SaACwyd5xdW8+1iBh8dmAws3j0Eb6tP6Yvi4Mt1GXOHUM6zLOYGT+mxxeYwc6Xs4fv+YSK4k5D+EsNyQG5t9dyGvgaq9ppFzVosbjqTO6vK9bIC3tlL5AsErRYuMtxxnBeKLRwA6MD7PqyuXbJ6kOdcEZdg9tqdb+QzkHSzO+2iA/+GYt/O/wjfchznBaK7u5kINsNiFSoC4wD+uEp7zbWZ3MxZi8UtKwGks2ayN9RvIjnPFu8XAh0kfk1Irbh6OJXMto0jMN4Xi+8671MAp9kZCM/ub5h5b2DhRG6BhQMU0Jie3uQVDew0vvdl69pTrnSNHgFIHQQPAeiIyEFHgvypN9Rfnm42J5dcBNQ1yXBR5jYAURsPSDwfiCxKiHvvvBq+F6k7Pds+RonTYtk9Tzem3E/bGpvzhOg1I8xi5A1EXSewqD7lfuWDOMXVNnuLAJxiebRk5Dp98JwjaazrmfWesaS3EfHNRzpbDNOrZGeV808UymQAx0XVrwT4nWP0+Qv245p+E0BB6boBQFWEnv8BYr5D/ZNimmpt1vsbBAd3JRrf0aPvHsM3ui907iKAt1qaanWox5U7eDN0Hi2yDwLzun1t5GJbbqKZTW2jfaVXWNb+rw0p97Ae+jobwEzY7j26w2ZCvlGfSvy4TyJg8lqprM3kFhY07qoeqOjvIpzSavTIhpQ7u2eEyH22sajATOn64+lrZBeA3w7p99oPCvlAPgJZiO+GrMo1tjQvhnqKbeMJ5N6e+mpIuVe1enpfAaciPPR9GwwR8M7a5lxjPkQ/RK+y/ThthezrtJlfgzyoB1azFMJvN6Sch3pzHHE99wFPmx+gyz04gakA3ndvX9FuZoOwec2+rjfp/+0L4ma0dOwvvpMUBCPy/ap1dPzsguqK13rb1pac/mGVa6aje1qZnR1lrgTwtfeL627mcAAwWruREkQWtP37IHJ/OuufRMg1KJoki9OVZ/avbZGTGqq5tkcRMC0jIxz6TwPykSLjeAvkpSOrnfvmkEEf5eejQPfEUYGSg7dl0a5rbv+IwFkOW0RPgM82jHUfj4z0ZbKrJMzXA+EUQkL8EbkSkPs7KvTN943khshzafKOgsKfrQow/P22ZUJJZ3KHkHyxu+6HP9TXuH1KCTNHRK1u8adS5CaEp7cBwBYGzqfrx3J9qAiozcruDs2jRZAvFFnoit6/Ianv6SvyCy1ZWZ4j6uxO/9mTSQse6g3y65pz54hrWkRwRTjygcK8r6zoMC2dU8j0KAryY7EloqgQqu/9Z/erc6y9Kt7b12WcQwaNSb1QXF0D4EcIzY8k1XDME+lVsqeVA8x5QvTqEeZZAoeGyNsNgfCMxhr9SCnkZyH96jp0T5vamqMe4cLbj8LnLFzKOAgmzE9VLI9is/CG+rcDMqtvo+RPRq5zLgjT5t+n3DV3jPOhllrEqgAySVw3Q8+8ie5pcv9t2vSIUqW1LeROXIjwULgXRq7Th2+b03scYM0Ic3kY8kG8SuUfWirkA0D+3G6l/CoX3hnMZ+i0uXj9NAryAcAb6t/ad+QDgJz9xnD/1ihv5sfEBfa9wxuZ886wIB9C3lMq5AP53Ini+IcCCPN+PmzNcHPZ+zjAtKaOCY5Sf4M9evaVjgp9VG9kYlQo9LvEYthYCbGKoVZxdTKKL15tJjcT5E9LMU6hzGhMJup7eq9gqs5auBoEXGUTP+IHE8pRMGLGMtnVd80TBCbYdBPxg0Max1W8qgDAUWp2CPKbQH1sOZAPAHePrVgK4AWLaThMB7kxCvLrmmQIyOtKNU4Kb5yalR6DWRdW8+2wYFMb8kk8W65qIQvG811f6WOsKeiACipeBQCqEAJtM8OaQMkZtiiaUgIhP4n46j8rvYjHPmW+Wlwj7jXslhBzYZQXzVZ9M4C3I5lLwZ+Uc20XVvNtQk4DLMk4yC+d2SIfVr4x02HLhk38II6iRpsr3Z8B+FeEV2+Mau+XfHRPqSk1UpuF9K83RXj1HWhnUbnXd0Ey8TKAH1oeJXRgpikCttz0xg/0HXFY0xbtwzYB5kbY/T+O0l56edsolMMDSXBAVDctr03P7YkLUDC3cTTb41hjh/o25P0IusLRKrCVPyGejrM0m6/07QBCvXhEcH3k2z5HJ8s1TuOY6hJxgXbl6jvjWt+CudyWSHt/RXQ3s4qwGTHCwmq+TeKPIfaH1sSQaLsfAJSwbD57VIxcJEpX6TsQnsL+kfkf4VuIFWjzKfyQslmO+AEEXkgQkk0M0K2e/ZmdAuCXbQkFJuq7/gYMgi3mD4BIUBH3+oLWsQQKEEtWbTkgzrHNbGobDSKsTs6gRIe5pBdYKl+ev160HbjmawCst3Ck+lxcbt+dqO4Ay2/vKIC2GLTDpi1vT8U1Nt9xvxa2Wwoc6eIZy2TXaIJaZ9A7t6rIOBWtI7lmF66Bi/knal+br8a1vtOz7WNgs/KSSxQoNvMuHUd/PY7BpVfJzhCp7eG1oYUd1SPUj+V6Af5WhqG+GDUa2NHm6wCGFOfImDFrhQyLY40V9OWwmtXlEeUq9z67siJn1Wa9z5V9dJ53JsLrCHaGC6PX0bE6nPTzFBitzXxeQlwQ4dUhucCbWu7lrWv2jobIDMuj1hzd+9W8Mfw3wAetEk/QMKOlvawpywmeHfHVoVqbSJ6/Wzz3TpvXbj/Qv3oI3XlR3szRXNnT7v9Ps5Hn3ieYtrw9JcA91t1PPnBvkpsUAIjvXQtLRk8CewWB+nO5FJa8p293o40Ar8AaNI8LohDkovHMCfFVhNcO6pXsB9SFnbOKFVNmCZwbgu3XLOs7oS7rTSqLaF3eNspx1GOw+w9u8pXznbx4ANA4rnK1iITIfO4baPNiOut9pgxs1b4DyFtgd7BIBKK+G6XtxqT+DYE5JRjm1Q0p/dtIyiydG2BJjp13i7dfEgnknJIrfU3eJ+Ho5wDuY2c8csk251t2tv7UZs3DAMLy3+SEckljtXtnf8ORtmnKjmPetByV/iWu3lt7udFhDhZK5LAFNYlIqWXSzbmLCd6C3ts2hIJr61P6mijzrW3OfRzg8xZ2a0SCA7YMTqwZ0mbWCbBLl+dtytN7LxjPd0tw1GM6611A8GaEVzt9uCGpv7RtTqoTmYpbpU8F8FTIhwkK70hnzZPpTMfY/o5Vae9U2zmZxF2No9lezMEiIP83avrWxlTiVhGeEJYEMgSyovD5+hp3TnRi500IcWBprKloKtx52ErFVgauN7kUR73arHmU4I9CkS94rtLTUzvP6X27Yt5wbs1Rn4gixygCR5Dq5dqsd/V5y6SqrwNmwKnWIfr+e8qWuM4cALY7gEl1WT9yBExjjX7E3eTsR8jZhcBOm0XPgHhcRGa5m/T4xmr3D1Hbr82aUwB8yvJos6OdazpNOkSRZJ9PA+ctk6q6jDdHifMagKPDxS1ezCl9fNc7FYaezT1zD4Ev9ND/2yK4cctgfWdvQrIL3r4tlv5faEi5k7ocY2YLcK1lSmtNmzuuL+5U6VWys/jeGIoanuf1wXo67orG0dzY27bOXCI76UpvuU3eEri6PuV+5/2iwnsRwCHdxJrRo6NE8rx33Fwvg71Wcx6Ab8CeGLMz/NZ19Bn5E18Xi5R1x4zmxjkiJ65pNt8GMRvhEUQfJnHzTm3m0nTGu9139PyeAjzz1Oicbm1TugdHeG36Fl1pzgHQ5SKG+7iVZjaAy3uLtAKi/1746xfoSnN1iLK13mvTt1iUvnsJHtLtyO2aKQBu6JHg8m5nZ3mbzQUg9uzReklcO6pafyfMg7tHOZrOmM+T8hMAUfLkdlDkwUBhbrHy57XN3muW459xtN7bdktWpNR6zkFwYFQn0VJDbbZjP4h6xSpzyTMbkvqeEASus2y+1xtSbqgfQ13WmySBnAdyMhDlckzeEMWzexJljMpuTKu5WoBLUcRm32U3rwH5kKI0FrxSCufTjgPoqKWWLx5pSLlfCNduzZMEjrBM4M/1KffoD4QAMt7jII60yNunG5P6M2EKZG2z9wcA3aysDoL9OhNzbbZjPwbqK0KcBks62XC7BeczcC6tH8se6w30KkFEOpM7BORNNkT0AEsgeEiU/J7Co4HuqdwFnNqY0qHm1hktHfsHgXrZLrZ4ekNK3x8n8uuyZqqI3GN55CkVfLRYmFldxkwTyl2WE9C3ADwVCI4H8MUQj95i8CQDuax+bGJxdEtsXybf7B1dUMz6YsUyFiTmctS791Slszbj3QLCdjX8T6P0+Cj6RylgVkZ282iWwe54elNDyr2s6PcrZJjnm3e6ig4CRvqQYofEs+Lj6t5ES1mPgVGhPuU+1pByPwHiOBC/76XJ1TbBDRXw6tLZ3GHFavRQ9LcB2FzVdtPi/Siu3W9o5lqRL/iH6+jvFjsx1GW9SV7g1QHYaBEdvUF+AOARAY6tT7qf6gvy+8wBurPn9moR51wR1KH/5U59AC0QWQLwFUUu9R3TnNhQsXrewfRqM+ZU5Ov/WQiEJ9fX6F+VE/npZnMyIb+wmw75lcakXjRrsbi5XTpGOb5OBSITADkQ5EQASfTT24rABhANPvy5dyUHrejvfEqaJm7yWqkc0u6fAMgUERyHEI+Yvm48gG8AsgIiSdCSJk7wD2X0+JKYVW2Evkx2DbRZZjt+CWQVwRYBqwnZN7KyHA3aAfye5AObBzm/KWUavLIlipy1QoYZ3zspAE8hcCSAWApFCqSN4GoAmwBsIrAR5EYRCCEbOrHbVmE+YIICl52SYAi4CwhFkWGS52hDAQwTyEiClYgHtgJ4HMKfu9r5tc2Is10TQBfL2yDxvGmqzJEwOwoI5Xxotz6OuIFYvH8bR7NdhYuD5UA56gjL9o5nH+iesaPzmsUxiPjSxYO2DGC+uPoTqgO+wBwixIFUMhHCCcgHrPSjQNN2lXc8B2AZIEtBLIHPJYT+mxEkHMe83XUjKuFn0HO01MAiAAEmWVCypNMFzOOFv7wOsVjc9qrcOMdxUoRUC1jIwSvVAPfe3jCcP5bJmxCugOIKgbQQXOH7fvOg1sTyeQfTyuVqm71X0SX9nfTNvrL9EkB6lexJz9gidp4J+6awYEsLf++DC7NS8W+FPRwxe9PnHqBcLha3ZyFECTZKXvz0VnlrA9AGwa5Wf1rgrxDeoJS8ZZReNyzAW1HcxixHx2co0jX/4d61Wdm93JHZsRGAyvkHWd03hH2qjFVY6DcKfzhvmfypzTUvFc7ZnewCoAA5X/QB22IdZy0Wt3V3e9q7qnfQum2nplfJnvDMS/YiJVzh0Tn23lRxy2U0JSx42VYmgzAHAXh0hyCAfGUsmwLgl6Qy1tzxbE1nclNJPovuN3N7ODQ/n7xMPr1oPHMFBBdNeDFrsbieZxbBntnbCIMz7k3qTaUYO4GXxC5PYiGAmOoGdmNxANDR5ieaSnbSqEn8DcA1IY8Pq3LND6K25Q3zb4HdwwckZhe76u4tbMq5ywpKYtc1OygO3MQTBEraXLmX9zXFeRiMTOrrAYR58F6Ubjan99RGbdacAZGwwI5eFaCMAoU16ObPQGH1DkMAhLVQdEup+5lDBuLqMwGuCOFEC2pbvE+EfT+9yfskREISS7FFXD29FB7RFlhhUTJH7hAEMGuFDLO4QlsLSpfI6LTRD/yTkTeldoVBCPCQLbhkZlPbaKXwS9gNVm2KwVf64jMYjUFaC0XvVtckQwY8AeR8z56Zk7K6XH3ePbZiqYBnhTzeLQic3+STUOdhalaG+ko/jLDEUsJzO3s1ldxGImJ1BqXOjRzwBKBEWTN2OKLWlLPfxpS+D2JNjgQAYys68qXgL8xKRSIwv0ZYwmXi5oYafVd5VSS12k4YaviAJwCxJE3Mbyp5t9x9j0zpSwuVN2xwdFXCPLhFzD02v77C2H/XWq2/WfZjciAbQjjPkB2AAIKhdqoPNpe77zlk4A7RpyMs0EXwRbFX/ACAl/w2feoi0i/3OEHZ3Ju1G2CnADsVe0xsQgwwbzi3MtBfAmRtLz5b71B/sZQ5fIsjIQhbiyE7AAHYr4FFEMt1J/Be1pATAURxqthIkc/HWYlEm4o2uwQov/NJHARgRbQGYs2U1ZhKvELieBTxPaDAiODE+prEkjjHFqh2ezIpkbYBTwBU9kn4XkdlnIsMEQaCryA8bBpCaJJTokYelwo8Rw0O4ZJlJwAdA3lvhcV45mhVFdcCTxZxqrL+XAARagfIuemszy0iF8SiAAJgwMHWwHKldgQOEHbzpvaJY3HPXCI7VWXNr3pTOIKQc6qy5pdnLomntL2ishbhlADvDngCCAK/OUS+lT0PYXqV7KkHmycBnBA2PGFoZtETdaV5dmZW9i73OCVkLRzHNA94AthiEithScgg4NiyIr85dyBz3guWApXbIEfhKUp4KizXsQWY6AfeM+nm3IFltgPYAj9z+6ytWD3gCaBw3Wm5+AmOKhvyM7mzCD4PMsyW3ibCk+pr9K/qU/oXAL+MsGzl5EiCz6czubPKuEy2tVgZpVjVQDgGQoRPW1Z21MzmjnElVfbWSmU6Y+bni1uHuqH/i4JjOxfAymcBkyMRnuN/EMl5tZncwlLrBdOaOibYE0zwqVj0j1jUcMJabSyAml6qLmqbvKOq2vxXSWtWzG3QRPiH1te43ZxRG1KJvwb0PxFSY2cbNzhDV/qvlDJlnuOoaSFr9vt4UBMD1DXJEFHmn+ju579ZeXpUf2L5Zq2QYSbwfyAiM3uYz1PK0yf31Fchfd2vABxejKkBnOc6zjf7E7JVCDNfje6pcjtMm/5QHKboWDhA/VhuJuSXlkdDfLdvYd2Tl0mitjl3keebZhE5qwjyBcTN7iZ9TBRCu3sc/+Vu0p8tXCVL+MaRsz3fZGozuQsmL5M+BbB49H4EW55kkUVx3UPEZvEqZPhYYiM6Et+qT7o3RNo162Wwt9k7HcBVRZS8bZPbIGRtQ1I/1CfOlTEnCaUePYS8C7hKMbhO7+TeP284t0ZTVL0rSNhK2wUOgv3jynsUq8mzttn7BYCQ/H5yn/j+lY3jKrsdfS7MSsXmwByqwNOEMhVAz2nWBc85Ys6YP7ayX65n07PtY5Q49wA4LMLrG4W8VwXywGajX7Q5vc5sahvtK+c6gFNCNOYHG2oSp8aFk1gJYNoK2dfxzWKE57ULCLwskAyo3oUEuwq4N/N59aLeHbQCcuXIpHt7v4pbdxY3Is6QFu9CEX4X0VLbA3mfxBcFso5UGyDBhwDWADiwiOh926H+WJw3kbHH1xVKrT+K0iZQKNhT8IcgMOfauEgpYGZT22ij9I9DSu31FwyIoxuS7lNx4uMDCbCszebOhfD2kimhxGIRXNGYcv8Uz/i9z1FwnQAfK1GTASHn1qcS8+LGxQcWYVtQsObDUrauF/ASwe/VJ51flslfv6h1K93in0KRbyEfxtVXeBdkXV8V1QFLAAAw63XZy9P+dwE5E0Xu6bvaDgDeF6jgp3GUto1m58gdLEqdBcgURHfj8kR4d8J3Zs/bj//3QY19u4ixn/W67JXT3ikEJoFMQpAEUAnBuyDepeCNAPiLAp4O0663B5i8TBJDtDk0AI5QwOFC7FsIL98VwFYQLRDJQvCcJNyfRy1CVU74fzISc9xxHFSAAAAAJXRFWHRkYXRlOmNyZWF0ZQAyMDI0LTA3LTE4VDAyOjE2OjUzKzAwOjAwO3IkgAAAACV0RVh0ZGF0ZTptb2RpZnkAMjAyNC0wNy0xOFQwMjoxNjo1MyswMDowMEovnDwAAAAASUVORK5CYII=;" parent="ZuHCqj4z-NWjuIJHpHam-12" vertex="1">
          <mxGeometry x="90" y="74.19" width="36.27" height="32.3" as="geometry" />
        </mxCell>
        <mxCell id="ZuHCqj4z-NWjuIJHpHam-9" value="Front" style="swimlane;" parent="ZuHCqj4z-NWjuIJHpHam-12" vertex="1">
          <mxGeometry width="156" height="160" as="geometry" />
        </mxCell>
        <mxCell id="ZuHCqj4z-NWjuIJHpHam-17" value="" style="image;sketch=0;aspect=fixed;html=1;points=[];align=center;fontSize=12;image=img/lib/mscae/Docker.svg;" parent="ZuHCqj4z-NWjuIJHpHam-9" vertex="1">
          <mxGeometry x="106" width="50" height="41" as="geometry" />
        </mxCell>
        <mxCell id="ZuHCqj4z-NWjuIJHpHam-25" value="GET Back:8080" style="text;html=1;align=center;verticalAlign=middle;whiteSpace=wrap;rounded=0;" parent="ZuHCqj4z-NWjuIJHpHam-20" vertex="1">
          <mxGeometry x="280" y="250" width="60" height="30" as="geometry" />
        </mxCell>
        <mxCell id="ZuHCqj4z-NWjuIJHpHam-26" value="Jdbc&lt;br&gt;Database:5432/badReadsDB" style="text;html=1;align=center;verticalAlign=middle;whiteSpace=wrap;rounded=0;" parent="ZuHCqj4z-NWjuIJHpHam-20" vertex="1">
          <mxGeometry x="207" y="510" width="100" height="30" as="geometry" />
        </mxCell>
        <mxCell id="ZuHCqj4z-NWjuIJHpHam-39" value="" style="shape=image;verticalLabelPosition=bottom;labelBackgroundColor=default;verticalAlign=top;aspect=fixed;imageAspect=0;image=data:image/png,iVBORw0KGgoAAAANSUhEUgAAAIAAAAAbCAMAAACDQXd5AAAABGdBTUEAALGPC/xhBQAAACBjSFJNAAB6JgAAgIQAAPoAAACA6AAAdTAAAOpgAAA6mAAAF3CculE8AAACBFBMVEUAAAAAnQAAmQAAmQAAmQAAmQAAgAAAmgAAmQAAmQAAmQAAmAAAmQAAmQAAmAAAmAAAmQAAmQAAmQAAqgAAmQAAmQAAmQAAmQAAmgAAmQAAmQAAmQAAmAAAmgAAmQAAmQAAmQAAmQAAmQAAmAAAmAAAmQAAmQAAmQAAmAAAmQAAmQAAmQAAmQAAmQAAmAAAmgAAmQAAmgAAmQAAmQAAmQAAmQAAmQAAlwAAmQAAmgAAmQAAmQAAmQAAmgAAmAAAmQAAmQAAmQAAmAAAmAAAmAAAmQAAmQAAmgAAmAAAmAAAmQAAmgAAlgAAmQAAmQAAmgAAmgAAmQAAmgAAmQAAmQAAmQAAmQAAmwAAmQAAmAAAmgAA/wAAmQAAmwAAmgAAmQAAmAAAnAAAmgAAmQAAogAAmgAAmQAAmgAAmQAAmgAAmAAAmQAAqgAAkgAAlgAAkgAAmAAAmQAAmgAAmQAAmQAAmQAAmQAAmgAAmQAAmQAAmQAAmQAAmAAAgAAAmAAAnAAAmQAAmQAAmQAAjgAAmQAAmQAAmQAAmQAAmQAAnwAAmgAAmQAAmQAAmAAAmgAAmQAAmgAAmgAAmgAAmAAAmQAAmQAAmAAAmgAAmQAAmQAAmQAAmQAAmQAAmQAAlwAAmwAAmQAAlwAAmAAAmgAAmwAAmQAAmAAAmAAAmQAAmQAAmQD///+R2ADKAAAAqnRSTlMADZvo0VACfuHdcWPu7CVo2dxwA3rXzVpbe9rPXlPLhQWi/WFcCuWeVF94/kZ1d3lpiPbFsX34Fq260qDQar3xwOCucsJr05dNfGxdJ/uZyWJnsKUjt389+aQmAYopjeRXEqvvC3TqYLxvi3YGBxEOWfxYblWjuzqAqonjgQSjH/dLZAn6c+b17QiDzOKQVow/K06zys5tZefD8K/V8iA4QUCpMEKnPk+0voWEz9AAAAABYktHRKvJAWcoAAAAB3RJTUUH6AcQCxU0zq5FgAAAA69JREFUSMeFl/lDjEEYx5+IbqmtVmLLOlbeSrml6FDOSCKURELJVSm5i5Dcd245Yv5K78w7xzPzzrbzyz7zfGfn+3ln5515FuJmzY6fA0abm5CYlKy6Kal6S5snpfT5GZn0M5CVnRM0p4EFOdlZAarmLsxb5FMXhzLyC2AJISS81JAy3SRZJnrLVxCjRYS0kvYK3WCV++kUGdMUU3WVG5TQYLWhljpusgzWEAvBWppcJ3rrTX+yYSOXNtHeZjcop8EWiz8pd6MKFmVpaiX1J4ngzeika2I8zW3lnY3bfACkhGtVtJPjBtU0qNEmqfWGVrvhdi/MRWod8yf1HMBYAw1gh9+fJAZiAhQTBbAz7MW7pLrb8yd7BIC+BhhgbwOTI/t428+G74wFUEsQADRyggSuHuD+7r4gNgIM0MTUg1JrZkCHYgBIfw9AEhw2/RUAJkAALUw70qzmPsoGH5sRQPlzAFiKCIQ/fUEQACJQAK3shSBtaHGPs6naZwJA/gJAEpRBJvb3AE4YO1EBdDAh9STeXqdoqvN0dIAu/kBnMACc5QTnPH+nGxRAz3l9DSRAbwbLZ2rv14WLtLH3II5GlwwA/vxOXY0GAJev4OXm/hwAdAIJkMyySRcgVkMA0h8MAOhTBE4/6AA6gQC4mMaSA2xk8Oqg3oYArg277boGoPx9ANDX4POXABqBAPAOkxutdOBN8zBKumXbA8jfDwC3+XfPgR8AEwiAO3dZasRVC9aYAKO2TYj9/QDq7WizACACuQfyWSa7AODefcO/usACoPn7AMbQ19ssAIpAAsQ9YBn6i0UMgHTLa6j7mwBj2vd7LADi4g0/lOdAI0s8cs+B8cd5SW6bP+ExPen1A3QaB5oOwP2dSINGoAGINSASYG6IxU/RD+llSi0nof78BkCXVJ9xgucWAEzg3QUvWNzwUo54xRIPxqMBKH8NoAupGoEBgAi2oqKHvJYD3rB+HUQBQP4YgFcHTiXrDSACE0ARcIDmDaz3dsJr8d7lMR4FAPsjAN1fEbRbAGQJKCqiNktF9A7sAE4p2ACCfHO/l1IHJ6i0AIg1EABxH3z+H+7ZAbTnRwCTnv8o0jhBPXxUN7OxBsOy9vcBdGvFySdR9+rPz4+OClFla/5iJ35mC/zlK/gJVJUfqI+2APDNnSX8nf+TMP3hR5hf5YXUP8VQ2T7ohsDY5NRP3+3aMXhoRPV+GdcgqqCHfk/9YZVTf6hq2jfNdFWon91kwcG/RT61pelfCvwHE0MYDl3HAiwAAAAldEVYdGRhdGU6Y3JlYXRlADIwMjQtMDctMTZUMTE6MjE6NTErMDA6MDDXlDPCAAAAJXRFWHRkYXRlOm1vZGlmeQAyMDI0LTA3LTE2VDExOjIxOjUxKzAwOjAwpsmLfgAAAABJRU5ErkJggg==;" parent="ZuHCqj4z-NWjuIJHpHam-20" vertex="1">
          <mxGeometry x="321" y="13" width="128" height="27" as="geometry" />
        </mxCell>
        <mxCell id="ZuHCqj4z-NWjuIJHpHam-13" value="" style="group" parent="1" vertex="1" connectable="0">
          <mxGeometry x="347" y="120" width="156" height="160" as="geometry" />
        </mxCell>
        <mxCell id="ZuHCqj4z-NWjuIJHpHam-2" value="" style="image;aspect=fixed;html=1;points=[];align=center;fontSize=12;image=img/lib/azure2/compute/Azure_Spring_Cloud.svg;" parent="ZuHCqj4z-NWjuIJHpHam-13" vertex="1">
          <mxGeometry x="44" y="60" width="68" height="68" as="geometry" />
        </mxCell>
        <mxCell id="ZuHCqj4z-NWjuIJHpHam-11" value="Back" style="swimlane;" parent="ZuHCqj4z-NWjuIJHpHam-13" vertex="1">
          <mxGeometry width="156" height="160" as="geometry" />
        </mxCell>
        <mxCell id="ZuHCqj4z-NWjuIJHpHam-16" value="" style="image;sketch=0;aspect=fixed;html=1;points=[];align=center;fontSize=12;image=img/lib/mscae/Docker.svg;" parent="ZuHCqj4z-NWjuIJHpHam-11" vertex="1">
          <mxGeometry x="106" width="50" height="41" as="geometry" />
        </mxCell>
        <mxCell id="ZuHCqj4z-NWjuIJHpHam-14" value="" style="group" parent="1" vertex="1" connectable="0">
          <mxGeometry x="347" y="380" width="156" height="160" as="geometry" />
        </mxCell>
        <mxCell id="ZuHCqj4z-NWjuIJHpHam-1" value="" style="image;aspect=fixed;html=1;points=[];align=center;fontSize=12;image=img/lib/azure2/databases/Azure_Database_PostgreSQL_Server.svg;" parent="ZuHCqj4z-NWjuIJHpHam-14" vertex="1">
          <mxGeometry x="50" y="48" width="48" height="64" as="geometry" />
        </mxCell>
        <mxCell id="ZuHCqj4z-NWjuIJHpHam-7" value="Database" style="swimlane;" parent="ZuHCqj4z-NWjuIJHpHam-14" vertex="1">
          <mxGeometry width="156" height="160" as="geometry" />
        </mxCell>
        <mxCell id="ZuHCqj4z-NWjuIJHpHam-15" value="" style="image;sketch=0;aspect=fixed;html=1;points=[];align=center;fontSize=12;image=img/lib/mscae/Docker.svg;" parent="ZuHCqj4z-NWjuIJHpHam-7" vertex="1">
          <mxGeometry x="106" width="50" height="41" as="geometry" />
        </mxCell>
        <mxCell id="ZuHCqj4z-NWjuIJHpHam-23" value="" style="endArrow=classic;html=1;rounded=0;exitX=0.25;exitY=1;exitDx=0;exitDy=0;entryX=0.25;entryY=0;entryDx=0;entryDy=0;" parent="1" source="ZuHCqj4z-NWjuIJHpHam-11" target="ZuHCqj4z-NWjuIJHpHam-7" edge="1">
          <mxGeometry width="50" height="50" relative="1" as="geometry">
            <mxPoint x="375" y="350" as="sourcePoint" />
            <mxPoint x="425" y="300" as="targetPoint" />
          </mxGeometry>
        </mxCell>
        <mxCell id="ZuHCqj4z-NWjuIJHpHam-24" value="" style="endArrow=classic;html=1;rounded=0;exitX=0.25;exitY=1;exitDx=0;exitDy=0;entryX=0.25;entryY=0;entryDx=0;entryDy=0;" parent="1" source="ZuHCqj4z-NWjuIJHpHam-9" target="ZuHCqj4z-NWjuIJHpHam-11" edge="1">
          <mxGeometry width="50" height="50" relative="1" as="geometry">
            <mxPoint x="360" y="100" as="sourcePoint" />
            <mxPoint x="410" y="50" as="targetPoint" />
          </mxGeometry>
        </mxCell>
        <mxCell id="ZuHCqj4z-NWjuIJHpHam-37" value="" style="group" parent="1" vertex="1" connectable="0">
          <mxGeometry x="325" y="-550" width="200" height="180" as="geometry" />
        </mxCell>
        <mxCell id="ZuHCqj4z-NWjuIJHpHam-28" value="&lt;div&gt;&lt;br&gt;&lt;/div&gt;" style="sketch=0;outlineConnect=0;fontColor=#232F3E;gradientColor=none;strokeColor=#232F3E;fillColor=#ffffff;dashed=0;verticalLabelPosition=bottom;verticalAlign=top;align=center;html=1;fontSize=12;fontStyle=0;aspect=fixed;shape=mxgraph.aws4.resourceIcon;resIcon=mxgraph.aws4.user;" parent="ZuHCqj4z-NWjuIJHpHam-37" vertex="1">
          <mxGeometry x="70" y="30" width="60" height="60" as="geometry" />
        </mxCell>
        <mxCell id="ZuHCqj4z-NWjuIJHpHam-33" value="" style="endArrow=classic;html=1;rounded=0;entryX=0.5;entryY=0;entryDx=0;entryDy=0;" parent="ZuHCqj4z-NWjuIJHpHam-37" source="ZuHCqj4z-NWjuIJHpHam-28" target="ZuHCqj4z-NWjuIJHpHam-31" edge="1">
          <mxGeometry width="50" height="50" relative="1" as="geometry">
            <mxPoint x="95" y="130" as="sourcePoint" />
            <mxPoint x="136" y="80" as="targetPoint" />
          </mxGeometry>
        </mxCell>
        <mxCell id="ZuHCqj4z-NWjuIJHpHam-34" value="" style="group" parent="ZuHCqj4z-NWjuIJHpHam-37" vertex="1" connectable="0">
          <mxGeometry y="140" width="200" height="40" as="geometry" />
        </mxCell>
        <mxCell id="ZuHCqj4z-NWjuIJHpHam-31" value="" style="rounded=0;whiteSpace=wrap;html=1;" parent="ZuHCqj4z-NWjuIJHpHam-34" vertex="1">
          <mxGeometry width="200" height="40" as="geometry" />
        </mxCell>
        <mxCell id="ZuHCqj4z-NWjuIJHpHam-32" value="mpawlos.com/proj/badReads" style="text;html=1;align=center;verticalAlign=middle;whiteSpace=wrap;rounded=0;" parent="ZuHCqj4z-NWjuIJHpHam-34" vertex="1">
          <mxGeometry x="76" y="5" width="60" height="30" as="geometry" />
        </mxCell>
        <mxCell id="ZuHCqj4z-NWjuIJHpHam-35" value="John Doe" style="text;html=1;align=center;verticalAlign=middle;whiteSpace=wrap;rounded=0;" parent="ZuHCqj4z-NWjuIJHpHam-37" vertex="1">
          <mxGeometry x="70" width="60" height="30" as="geometry" />
        </mxCell>
      </root>
    </mxGraphModel>
  </diagram>
</mxfile>
